<?xml version="1.0" encoding="utf-8" standalone="no"?>
<!DOCTYPE svg PUBLIC "-//W3C//DTD SVG 1.1//EN"
  "http://www.w3.org/Graphics/SVG/1.1/DTD/svg11.dtd">
<svg xmlns:xlink="http://www.w3.org/1999/xlink" width="1244.16pt" height="668.88pt" viewBox="0 0 1244.16 668.88" xmlns="http://www.w3.org/2000/svg" version="1.1">
 <metadata>
  <rdf:RDF xmlns:dc="http://purl.org/dc/elements/1.1/" xmlns:cc="http://creativecommons.org/ns#" xmlns:rdf="http://www.w3.org/1999/02/22-rdf-syntax-ns#">
   <cc:Work>
    <dc:type rdf:resource="http://purl.org/dc/dcmitype/StillImage"/>
    <dc:date>2023-12-21T15:03:38.151238</dc:date>
    <dc:format>image/svg+xml</dc:format>
    <dc:creator>
     <cc:Agent>
      <dc:title>Matplotlib v3.8.0, https://matplotlib.org/</dc:title>
     </cc:Agent>
    </dc:creator>
   </cc:Work>
  </rdf:RDF>
 </metadata>
 <defs>
  <style type="text/css">*{stroke-linejoin: round; stroke-linecap: butt}</style>
 </defs>
 <g id="figure_1">
  <g id="patch_1">
   <path d="M 0 668.88 
L 1244.16 668.88 
L 1244.16 0 
L 0 0 
z
" style="fill: #ffffff"/>
  </g>
  <g id="axes_1">
   <g id="patch_2">
    <path d="M 155.52 595.3032 
L 1119.744 595.3032 
L 1119.744 80.2656 
L 155.52 80.2656 
z
" style="fill: #ffffff"/>
   </g>
   <g id="matplotlib.axis_1">
    <g id="xtick_1">
     <g id="line2d_1">
      <path d="M 199.348364 595.3032 
L 199.348364 80.2656 
" clip-path="url(#pb996470ad5)" style="fill: none; stroke: #b0b0b0; stroke-width: 0.8; stroke-linecap: square"/>
     </g>
     <g id="line2d_2">
      <defs>
       <path id="m47f940c4f9" d="M 0 0 
L 0 3.5 
" style="stroke: #000000; stroke-width: 0.8"/>
      </defs>
      <g>
       <use xlink:href="#m47f940c4f9" x="199.348364" y="595.3032" style="stroke: #000000; stroke-width: 0.8"/>
      </g>
     </g>
     <g id="text_1">
      <!-- 0 -->
      <g transform="translate(196.167114 609.901637) scale(0.1 -0.1)">
       <defs>
        <path id="DejaVuSans-30" d="M 2034 4250 
Q 1547 4250 1301 3770 
Q 1056 3291 1056 2328 
Q 1056 1369 1301 889 
Q 1547 409 2034 409 
Q 2525 409 2770 889 
Q 3016 1369 3016 2328 
Q 3016 3291 2770 3770 
Q 2525 4250 2034 4250 
z
M 2034 4750 
Q 2819 4750 3233 4129 
Q 3647 3509 3647 2328 
Q 3647 1150 3233 529 
Q 2819 -91 2034 -91 
Q 1250 -91 836 529 
Q 422 1150 422 2328 
Q 422 3509 836 4129 
Q 1250 4750 2034 4750 
z
" transform="scale(0.015625)"/>
       </defs>
       <use xlink:href="#DejaVuSans-30"/>
      </g>
     </g>
    </g>
    <g id="xtick_2">
     <g id="line2d_3">
      <path d="M 374.696888 595.3032 
L 374.696888 80.2656 
" clip-path="url(#pb996470ad5)" style="fill: none; stroke: #b0b0b0; stroke-width: 0.8; stroke-linecap: square"/>
     </g>
     <g id="line2d_4">
      <g>
       <use xlink:href="#m47f940c4f9" x="374.696888" y="595.3032" style="stroke: #000000; stroke-width: 0.8"/>
      </g>
     </g>
     <g id="text_2">
      <!-- 1000 -->
      <g transform="translate(361.971888 609.901637) scale(0.1 -0.1)">
       <defs>
        <path id="DejaVuSans-31" d="M 794 531 
L 1825 531 
L 1825 4091 
L 703 3866 
L 703 4441 
L 1819 4666 
L 2450 4666 
L 2450 531 
L 3481 531 
L 3481 0 
L 794 0 
L 794 531 
z
" transform="scale(0.015625)"/>
       </defs>
       <use xlink:href="#DejaVuSans-31"/>
       <use xlink:href="#DejaVuSans-30" x="63.623047"/>
       <use xlink:href="#DejaVuSans-30" x="127.246094"/>
       <use xlink:href="#DejaVuSans-30" x="190.869141"/>
      </g>
     </g>
    </g>
    <g id="xtick_3">
     <g id="line2d_5">
      <path d="M 550.045412 595.3032 
L 550.045412 80.2656 
" clip-path="url(#pb996470ad5)" style="fill: none; stroke: #b0b0b0; stroke-width: 0.8; stroke-linecap: square"/>
     </g>
     <g id="line2d_6">
      <g>
       <use xlink:href="#m47f940c4f9" x="550.045412" y="595.3032" style="stroke: #000000; stroke-width: 0.8"/>
      </g>
     </g>
     <g id="text_3">
      <!-- 2000 -->
      <g transform="translate(537.320412 609.901637) scale(0.1 -0.1)">
       <defs>
        <path id="DejaVuSans-32" d="M 1228 531 
L 3431 531 
L 3431 0 
L 469 0 
L 469 531 
Q 828 903 1448 1529 
Q 2069 2156 2228 2338 
Q 2531 2678 2651 2914 
Q 2772 3150 2772 3378 
Q 2772 3750 2511 3984 
Q 2250 4219 1831 4219 
Q 1534 4219 1204 4116 
Q 875 4013 500 3803 
L 500 4441 
Q 881 4594 1212 4672 
Q 1544 4750 1819 4750 
Q 2544 4750 2975 4387 
Q 3406 4025 3406 3419 
Q 3406 3131 3298 2873 
Q 3191 2616 2906 2266 
Q 2828 2175 2409 1742 
Q 1991 1309 1228 531 
z
" transform="scale(0.015625)"/>
       </defs>
       <use xlink:href="#DejaVuSans-32"/>
       <use xlink:href="#DejaVuSans-30" x="63.623047"/>
       <use xlink:href="#DejaVuSans-30" x="127.246094"/>
       <use xlink:href="#DejaVuSans-30" x="190.869141"/>
      </g>
     </g>
    </g>
    <g id="xtick_4">
     <g id="line2d_7">
      <path d="M 725.393936 595.3032 
L 725.393936 80.2656 
" clip-path="url(#pb996470ad5)" style="fill: none; stroke: #b0b0b0; stroke-width: 0.8; stroke-linecap: square"/>
     </g>
     <g id="line2d_8">
      <g>
       <use xlink:href="#m47f940c4f9" x="725.393936" y="595.3032" style="stroke: #000000; stroke-width: 0.8"/>
      </g>
     </g>
     <g id="text_4">
      <!-- 3000 -->
      <g transform="translate(712.668936 609.901637) scale(0.1 -0.1)">
       <defs>
        <path id="DejaVuSans-33" d="M 2597 2516 
Q 3050 2419 3304 2112 
Q 3559 1806 3559 1356 
Q 3559 666 3084 287 
Q 2609 -91 1734 -91 
Q 1441 -91 1130 -33 
Q 819 25 488 141 
L 488 750 
Q 750 597 1062 519 
Q 1375 441 1716 441 
Q 2309 441 2620 675 
Q 2931 909 2931 1356 
Q 2931 1769 2642 2001 
Q 2353 2234 1838 2234 
L 1294 2234 
L 1294 2753 
L 1863 2753 
Q 2328 2753 2575 2939 
Q 2822 3125 2822 3475 
Q 2822 3834 2567 4026 
Q 2313 4219 1838 4219 
Q 1578 4219 1281 4162 
Q 984 4106 628 3988 
L 628 4550 
Q 988 4650 1302 4700 
Q 1616 4750 1894 4750 
Q 2613 4750 3031 4423 
Q 3450 4097 3450 3541 
Q 3450 3153 3228 2886 
Q 3006 2619 2597 2516 
z
" transform="scale(0.015625)"/>
       </defs>
       <use xlink:href="#DejaVuSans-33"/>
       <use xlink:href="#DejaVuSans-30" x="63.623047"/>
       <use xlink:href="#DejaVuSans-30" x="127.246094"/>
       <use xlink:href="#DejaVuSans-30" x="190.869141"/>
      </g>
     </g>
    </g>
    <g id="xtick_5">
     <g id="line2d_9">
      <path d="M 900.742461 595.3032 
L 900.742461 80.2656 
" clip-path="url(#pb996470ad5)" style="fill: none; stroke: #b0b0b0; stroke-width: 0.8; stroke-linecap: square"/>
     </g>
     <g id="line2d_10">
      <g>
       <use xlink:href="#m47f940c4f9" x="900.742461" y="595.3032" style="stroke: #000000; stroke-width: 0.8"/>
      </g>
     </g>
     <g id="text_5">
      <!-- 4000 -->
      <g transform="translate(888.017461 609.901637) scale(0.1 -0.1)">
       <defs>
        <path id="DejaVuSans-34" d="M 2419 4116 
L 825 1625 
L 2419 1625 
L 2419 4116 
z
M 2253 4666 
L 3047 4666 
L 3047 1625 
L 3713 1625 
L 3713 1100 
L 3047 1100 
L 3047 0 
L 2419 0 
L 2419 1100 
L 313 1100 
L 313 1709 
L 2253 4666 
z
" transform="scale(0.015625)"/>
       </defs>
       <use xlink:href="#DejaVuSans-34"/>
       <use xlink:href="#DejaVuSans-30" x="63.623047"/>
       <use xlink:href="#DejaVuSans-30" x="127.246094"/>
       <use xlink:href="#DejaVuSans-30" x="190.869141"/>
      </g>
     </g>
    </g>
    <g id="xtick_6">
     <g id="line2d_11">
      <path d="M 1076.090985 595.3032 
L 1076.090985 80.2656 
" clip-path="url(#pb996470ad5)" style="fill: none; stroke: #b0b0b0; stroke-width: 0.8; stroke-linecap: square"/>
     </g>
     <g id="line2d_12">
      <g>
       <use xlink:href="#m47f940c4f9" x="1076.090985" y="595.3032" style="stroke: #000000; stroke-width: 0.8"/>
      </g>
     </g>
     <g id="text_6">
      <!-- 5000 -->
      <g transform="translate(1063.365985 609.901637) scale(0.1 -0.1)">
       <defs>
        <path id="DejaVuSans-35" d="M 691 4666 
L 3169 4666 
L 3169 4134 
L 1269 4134 
L 1269 2991 
Q 1406 3038 1543 3061 
Q 1681 3084 1819 3084 
Q 2600 3084 3056 2656 
Q 3513 2228 3513 1497 
Q 3513 744 3044 326 
Q 2575 -91 1722 -91 
Q 1428 -91 1123 -41 
Q 819 9 494 109 
L 494 744 
Q 775 591 1075 516 
Q 1375 441 1709 441 
Q 2250 441 2565 725 
Q 2881 1009 2881 1497 
Q 2881 1984 2565 2268 
Q 2250 2553 1709 2553 
Q 1456 2553 1204 2497 
Q 953 2441 691 2322 
L 691 4666 
z
" transform="scale(0.015625)"/>
       </defs>
       <use xlink:href="#DejaVuSans-35"/>
       <use xlink:href="#DejaVuSans-30" x="63.623047"/>
       <use xlink:href="#DejaVuSans-30" x="127.246094"/>
       <use xlink:href="#DejaVuSans-30" x="190.869141"/>
      </g>
     </g>
    </g>
    <g id="text_7">
     <!-- # iterations -->
     <g transform="translate(608.12575 623.579762) scale(0.1 -0.1)">
      <defs>
       <path id="DejaVuSans-23" d="M 3272 2816 
L 2363 2816 
L 2100 1772 
L 3016 1772 
L 3272 2816 
z
M 2803 4594 
L 2478 3297 
L 3391 3297 
L 3719 4594 
L 4219 4594 
L 3897 3297 
L 4872 3297 
L 4872 2816 
L 3775 2816 
L 3519 1772 
L 4513 1772 
L 4513 1294 
L 3397 1294 
L 3072 0 
L 2572 0 
L 2894 1294 
L 1978 1294 
L 1656 0 
L 1153 0 
L 1478 1294 
L 494 1294 
L 494 1772 
L 1594 1772 
L 1856 2816 
L 850 2816 
L 850 3297 
L 1978 3297 
L 2297 4594 
L 2803 4594 
z
" transform="scale(0.015625)"/>
       <path id="DejaVuSans-20" transform="scale(0.015625)"/>
       <path id="DejaVuSans-69" d="M 603 3500 
L 1178 3500 
L 1178 0 
L 603 0 
L 603 3500 
z
M 603 4863 
L 1178 4863 
L 1178 4134 
L 603 4134 
L 603 4863 
z
" transform="scale(0.015625)"/>
       <path id="DejaVuSans-74" d="M 1172 4494 
L 1172 3500 
L 2356 3500 
L 2356 3053 
L 1172 3053 
L 1172 1153 
Q 1172 725 1289 603 
Q 1406 481 1766 481 
L 2356 481 
L 2356 0 
L 1766 0 
Q 1100 0 847 248 
Q 594 497 594 1153 
L 594 3053 
L 172 3053 
L 172 3500 
L 594 3500 
L 594 4494 
L 1172 4494 
z
" transform="scale(0.015625)"/>
       <path id="DejaVuSans-65" d="M 3597 1894 
L 3597 1613 
L 953 1613 
Q 991 1019 1311 708 
Q 1631 397 2203 397 
Q 2534 397 2845 478 
Q 3156 559 3463 722 
L 3463 178 
Q 3153 47 2828 -22 
Q 2503 -91 2169 -91 
Q 1331 -91 842 396 
Q 353 884 353 1716 
Q 353 2575 817 3079 
Q 1281 3584 2069 3584 
Q 2775 3584 3186 3129 
Q 3597 2675 3597 1894 
z
M 3022 2063 
Q 3016 2534 2758 2815 
Q 2500 3097 2075 3097 
Q 1594 3097 1305 2825 
Q 1016 2553 972 2059 
L 3022 2063 
z
" transform="scale(0.015625)"/>
       <path id="DejaVuSans-72" d="M 2631 2963 
Q 2534 3019 2420 3045 
Q 2306 3072 2169 3072 
Q 1681 3072 1420 2755 
Q 1159 2438 1159 1844 
L 1159 0 
L 581 0 
L 581 3500 
L 1159 3500 
L 1159 2956 
Q 1341 3275 1631 3429 
Q 1922 3584 2338 3584 
Q 2397 3584 2469 3576 
Q 2541 3569 2628 3553 
L 2631 2963 
z
" transform="scale(0.015625)"/>
       <path id="DejaVuSans-61" d="M 2194 1759 
Q 1497 1759 1228 1600 
Q 959 1441 959 1056 
Q 959 750 1161 570 
Q 1363 391 1709 391 
Q 2188 391 2477 730 
Q 2766 1069 2766 1631 
L 2766 1759 
L 2194 1759 
z
M 3341 1997 
L 3341 0 
L 2766 0 
L 2766 531 
Q 2569 213 2275 61 
Q 1981 -91 1556 -91 
Q 1019 -91 701 211 
Q 384 513 384 1019 
Q 384 1609 779 1909 
Q 1175 2209 1959 2209 
L 2766 2209 
L 2766 2266 
Q 2766 2663 2505 2880 
Q 2244 3097 1772 3097 
Q 1472 3097 1187 3025 
Q 903 2953 641 2809 
L 641 3341 
Q 956 3463 1253 3523 
Q 1550 3584 1831 3584 
Q 2591 3584 2966 3190 
Q 3341 2797 3341 1997 
z
" transform="scale(0.015625)"/>
       <path id="DejaVuSans-6f" d="M 1959 3097 
Q 1497 3097 1228 2736 
Q 959 2375 959 1747 
Q 959 1119 1226 758 
Q 1494 397 1959 397 
Q 2419 397 2687 759 
Q 2956 1122 2956 1747 
Q 2956 2369 2687 2733 
Q 2419 3097 1959 3097 
z
M 1959 3584 
Q 2709 3584 3137 3096 
Q 3566 2609 3566 1747 
Q 3566 888 3137 398 
Q 2709 -91 1959 -91 
Q 1206 -91 779 398 
Q 353 888 353 1747 
Q 353 2609 779 3096 
Q 1206 3584 1959 3584 
z
" transform="scale(0.015625)"/>
       <path id="DejaVuSans-6e" d="M 3513 2113 
L 3513 0 
L 2938 0 
L 2938 2094 
Q 2938 2591 2744 2837 
Q 2550 3084 2163 3084 
Q 1697 3084 1428 2787 
Q 1159 2491 1159 1978 
L 1159 0 
L 581 0 
L 581 3500 
L 1159 3500 
L 1159 2956 
Q 1366 3272 1645 3428 
Q 1925 3584 2291 3584 
Q 2894 3584 3203 3211 
Q 3513 2838 3513 2113 
z
" transform="scale(0.015625)"/>
       <path id="DejaVuSans-73" d="M 2834 3397 
L 2834 2853 
Q 2591 2978 2328 3040 
Q 2066 3103 1784 3103 
Q 1356 3103 1142 2972 
Q 928 2841 928 2578 
Q 928 2378 1081 2264 
Q 1234 2150 1697 2047 
L 1894 2003 
Q 2506 1872 2764 1633 
Q 3022 1394 3022 966 
Q 3022 478 2636 193 
Q 2250 -91 1575 -91 
Q 1294 -91 989 -36 
Q 684 19 347 128 
L 347 722 
Q 666 556 975 473 
Q 1284 391 1588 391 
Q 1994 391 2212 530 
Q 2431 669 2431 922 
Q 2431 1156 2273 1281 
Q 2116 1406 1581 1522 
L 1381 1569 
Q 847 1681 609 1914 
Q 372 2147 372 2553 
Q 372 3047 722 3315 
Q 1072 3584 1716 3584 
Q 2034 3584 2315 3537 
Q 2597 3491 2834 3397 
z
" transform="scale(0.015625)"/>
      </defs>
      <use xlink:href="#DejaVuSans-23"/>
      <use xlink:href="#DejaVuSans-20" x="83.789062"/>
      <use xlink:href="#DejaVuSans-69" x="115.576172"/>
      <use xlink:href="#DejaVuSans-74" x="143.359375"/>
      <use xlink:href="#DejaVuSans-65" x="182.568359"/>
      <use xlink:href="#DejaVuSans-72" x="244.091797"/>
      <use xlink:href="#DejaVuSans-61" x="285.205078"/>
      <use xlink:href="#DejaVuSans-74" x="346.484375"/>
      <use xlink:href="#DejaVuSans-69" x="385.693359"/>
      <use xlink:href="#DejaVuSans-6f" x="413.476562"/>
      <use xlink:href="#DejaVuSans-6e" x="474.658203"/>
      <use xlink:href="#DejaVuSans-73" x="538.037109"/>
     </g>
    </g>
   </g>
   <g id="matplotlib.axis_2">
    <g id="ytick_1">
     <g id="line2d_13">
      <path d="M 155.52 571.8924 
L 1119.744 571.8924 
" clip-path="url(#pb996470ad5)" style="fill: none; stroke: #b0b0b0; stroke-width: 0.8; stroke-linecap: square"/>
     </g>
     <g id="line2d_14">
      <defs>
       <path id="me47496f117" d="M 0 0 
L -3.5 0 
" style="stroke: #000000; stroke-width: 0.8"/>
      </defs>
      <g>
       <use xlink:href="#me47496f117" x="155.52" y="571.8924" style="stroke: #000000; stroke-width: 0.8"/>
      </g>
     </g>
     <g id="text_8">
      <!-- $\mathdefault{10^{-4}}$ -->
      <g transform="translate(125.02 575.691619) scale(0.1 -0.1)">
       <defs>
        <path id="DejaVuSans-2212" d="M 678 2272 
L 4684 2272 
L 4684 1741 
L 678 1741 
L 678 2272 
z
" transform="scale(0.015625)"/>
       </defs>
       <use xlink:href="#DejaVuSans-31" transform="translate(0 0.684375)"/>
       <use xlink:href="#DejaVuSans-30" transform="translate(63.623047 0.684375)"/>
       <use xlink:href="#DejaVuSans-2212" transform="translate(128.203125 38.965625) scale(0.7)"/>
       <use xlink:href="#DejaVuSans-34" transform="translate(186.855469 38.965625) scale(0.7)"/>
      </g>
     </g>
    </g>
    <g id="ytick_2">
     <g id="line2d_15">
      <path d="M 155.52 462.637998 
L 1119.744 462.637998 
" clip-path="url(#pb996470ad5)" style="fill: none; stroke: #b0b0b0; stroke-width: 0.8; stroke-linecap: square"/>
     </g>
     <g id="line2d_16">
      <g>
       <use xlink:href="#me47496f117" x="155.52" y="462.637998" style="stroke: #000000; stroke-width: 0.8"/>
      </g>
     </g>
     <g id="text_9">
      <!-- $\mathdefault{10^{-3}}$ -->
      <g transform="translate(125.02 466.437217) scale(0.1 -0.1)">
       <use xlink:href="#DejaVuSans-31" transform="translate(0 0.765625)"/>
       <use xlink:href="#DejaVuSans-30" transform="translate(63.623047 0.765625)"/>
       <use xlink:href="#DejaVuSans-2212" transform="translate(128.203125 39.046875) scale(0.7)"/>
       <use xlink:href="#DejaVuSans-33" transform="translate(186.855469 39.046875) scale(0.7)"/>
      </g>
     </g>
    </g>
    <g id="ytick_3">
     <g id="line2d_17">
      <path d="M 155.52 353.383596 
L 1119.744 353.383596 
" clip-path="url(#pb996470ad5)" style="fill: none; stroke: #b0b0b0; stroke-width: 0.8; stroke-linecap: square"/>
     </g>
     <g id="line2d_18">
      <g>
       <use xlink:href="#me47496f117" x="155.52" y="353.383596" style="stroke: #000000; stroke-width: 0.8"/>
      </g>
     </g>
     <g id="text_10">
      <!-- $\mathdefault{10^{-2}}$ -->
      <g transform="translate(125.02 357.182815) scale(0.1 -0.1)">
       <use xlink:href="#DejaVuSans-31" transform="translate(0 0.765625)"/>
       <use xlink:href="#DejaVuSans-30" transform="translate(63.623047 0.765625)"/>
       <use xlink:href="#DejaVuSans-2212" transform="translate(128.203125 39.046875) scale(0.7)"/>
       <use xlink:href="#DejaVuSans-32" transform="translate(186.855469 39.046875) scale(0.7)"/>
      </g>
     </g>
    </g>
    <g id="ytick_4">
     <g id="line2d_19">
      <path d="M 155.52 244.129195 
L 1119.744 244.129195 
" clip-path="url(#pb996470ad5)" style="fill: none; stroke: #b0b0b0; stroke-width: 0.8; stroke-linecap: square"/>
     </g>
     <g id="line2d_20">
      <g>
       <use xlink:href="#me47496f117" x="155.52" y="244.129195" style="stroke: #000000; stroke-width: 0.8"/>
      </g>
     </g>
     <g id="text_11">
      <!-- $\mathdefault{10^{-1}}$ -->
      <g transform="translate(125.02 247.928413) scale(0.1 -0.1)">
       <use xlink:href="#DejaVuSans-31" transform="translate(0 0.684375)"/>
       <use xlink:href="#DejaVuSans-30" transform="translate(63.623047 0.684375)"/>
       <use xlink:href="#DejaVuSans-2212" transform="translate(128.203125 38.965625) scale(0.7)"/>
       <use xlink:href="#DejaVuSans-31" transform="translate(186.855469 38.965625) scale(0.7)"/>
      </g>
     </g>
    </g>
    <g id="ytick_5">
     <g id="line2d_21">
      <path d="M 155.52 134.874793 
L 1119.744 134.874793 
" clip-path="url(#pb996470ad5)" style="fill: none; stroke: #b0b0b0; stroke-width: 0.8; stroke-linecap: square"/>
     </g>
     <g id="line2d_22">
      <g>
       <use xlink:href="#me47496f117" x="155.52" y="134.874793" style="stroke: #000000; stroke-width: 0.8"/>
      </g>
     </g>
     <g id="text_12">
      <!-- $\mathdefault{10^{0}}$ -->
      <g transform="translate(130.92 138.674012) scale(0.1 -0.1)">
       <use xlink:href="#DejaVuSans-31" transform="translate(0 0.765625)"/>
       <use xlink:href="#DejaVuSans-30" transform="translate(63.623047 0.765625)"/>
       <use xlink:href="#DejaVuSans-30" transform="translate(128.203125 39.046875) scale(0.7)"/>
      </g>
     </g>
    </g>
    <g id="ytick_6">
     <g id="line2d_23">
      <defs>
       <path id="m5b55ef4c5e" d="M 0 0 
L -2 0 
" style="stroke: #000000; stroke-width: 0.6"/>
      </defs>
      <g>
       <use xlink:href="#m5b55ef4c5e" x="155.52" y="588.816121" style="stroke: #000000; stroke-width: 0.6"/>
      </g>
     </g>
    </g>
    <g id="ytick_7">
     <g id="line2d_24">
      <g>
       <use xlink:href="#m5b55ef4c5e" x="155.52" y="582.480245" style="stroke: #000000; stroke-width: 0.6"/>
      </g>
     </g>
    </g>
    <g id="ytick_8">
     <g id="line2d_25">
      <g>
       <use xlink:href="#m5b55ef4c5e" x="155.52" y="576.891607" style="stroke: #000000; stroke-width: 0.6"/>
      </g>
     </g>
    </g>
    <g id="ytick_9">
     <g id="line2d_26">
      <g>
       <use xlink:href="#m5b55ef4c5e" x="155.52" y="539.003548" style="stroke: #000000; stroke-width: 0.6"/>
      </g>
     </g>
    </g>
    <g id="ytick_10">
     <g id="line2d_27">
      <g>
       <use xlink:href="#m5b55ef4c5e" x="155.52" y="519.764803" style="stroke: #000000; stroke-width: 0.6"/>
      </g>
     </g>
    </g>
    <g id="ytick_11">
     <g id="line2d_28">
      <g>
       <use xlink:href="#m5b55ef4c5e" x="155.52" y="506.114696" style="stroke: #000000; stroke-width: 0.6"/>
      </g>
     </g>
    </g>
    <g id="ytick_12">
     <g id="line2d_29">
      <g>
       <use xlink:href="#m5b55ef4c5e" x="155.52" y="495.52685" style="stroke: #000000; stroke-width: 0.6"/>
      </g>
     </g>
    </g>
    <g id="ytick_13">
     <g id="line2d_30">
      <g>
       <use xlink:href="#m5b55ef4c5e" x="155.52" y="486.875951" style="stroke: #000000; stroke-width: 0.6"/>
      </g>
     </g>
    </g>
    <g id="ytick_14">
     <g id="line2d_31">
      <g>
       <use xlink:href="#m5b55ef4c5e" x="155.52" y="479.561719" style="stroke: #000000; stroke-width: 0.6"/>
      </g>
     </g>
    </g>
    <g id="ytick_15">
     <g id="line2d_32">
      <g>
       <use xlink:href="#m5b55ef4c5e" x="155.52" y="473.225844" style="stroke: #000000; stroke-width: 0.6"/>
      </g>
     </g>
    </g>
    <g id="ytick_16">
     <g id="line2d_33">
      <g>
       <use xlink:href="#m5b55ef4c5e" x="155.52" y="467.637205" style="stroke: #000000; stroke-width: 0.6"/>
      </g>
     </g>
    </g>
    <g id="ytick_17">
     <g id="line2d_34">
      <g>
       <use xlink:href="#m5b55ef4c5e" x="155.52" y="429.749146" style="stroke: #000000; stroke-width: 0.6"/>
      </g>
     </g>
    </g>
    <g id="ytick_18">
     <g id="line2d_35">
      <g>
       <use xlink:href="#m5b55ef4c5e" x="155.52" y="410.510401" style="stroke: #000000; stroke-width: 0.6"/>
      </g>
     </g>
    </g>
    <g id="ytick_19">
     <g id="line2d_36">
      <g>
       <use xlink:href="#m5b55ef4c5e" x="155.52" y="396.860294" style="stroke: #000000; stroke-width: 0.6"/>
      </g>
     </g>
    </g>
    <g id="ytick_20">
     <g id="line2d_37">
      <g>
       <use xlink:href="#m5b55ef4c5e" x="155.52" y="386.272449" style="stroke: #000000; stroke-width: 0.6"/>
      </g>
     </g>
    </g>
    <g id="ytick_21">
     <g id="line2d_38">
      <g>
       <use xlink:href="#m5b55ef4c5e" x="155.52" y="377.621549" style="stroke: #000000; stroke-width: 0.6"/>
      </g>
     </g>
    </g>
    <g id="ytick_22">
     <g id="line2d_39">
      <g>
       <use xlink:href="#m5b55ef4c5e" x="155.52" y="370.307317" style="stroke: #000000; stroke-width: 0.6"/>
      </g>
     </g>
    </g>
    <g id="ytick_23">
     <g id="line2d_40">
      <g>
       <use xlink:href="#m5b55ef4c5e" x="155.52" y="363.971442" style="stroke: #000000; stroke-width: 0.6"/>
      </g>
     </g>
    </g>
    <g id="ytick_24">
     <g id="line2d_41">
      <g>
       <use xlink:href="#m5b55ef4c5e" x="155.52" y="358.382804" style="stroke: #000000; stroke-width: 0.6"/>
      </g>
     </g>
    </g>
    <g id="ytick_25">
     <g id="line2d_42">
      <g>
       <use xlink:href="#m5b55ef4c5e" x="155.52" y="320.494744" style="stroke: #000000; stroke-width: 0.6"/>
      </g>
     </g>
    </g>
    <g id="ytick_26">
     <g id="line2d_43">
      <g>
       <use xlink:href="#m5b55ef4c5e" x="155.52" y="301.255999" style="stroke: #000000; stroke-width: 0.6"/>
      </g>
     </g>
    </g>
    <g id="ytick_27">
     <g id="line2d_44">
      <g>
       <use xlink:href="#m5b55ef4c5e" x="155.52" y="287.605892" style="stroke: #000000; stroke-width: 0.6"/>
      </g>
     </g>
    </g>
    <g id="ytick_28">
     <g id="line2d_45">
      <g>
       <use xlink:href="#m5b55ef4c5e" x="155.52" y="277.018047" style="stroke: #000000; stroke-width: 0.6"/>
      </g>
     </g>
    </g>
    <g id="ytick_29">
     <g id="line2d_46">
      <g>
       <use xlink:href="#m5b55ef4c5e" x="155.52" y="268.367147" style="stroke: #000000; stroke-width: 0.6"/>
      </g>
     </g>
    </g>
    <g id="ytick_30">
     <g id="line2d_47">
      <g>
       <use xlink:href="#m5b55ef4c5e" x="155.52" y="261.052916" style="stroke: #000000; stroke-width: 0.6"/>
      </g>
     </g>
    </g>
    <g id="ytick_31">
     <g id="line2d_48">
      <g>
       <use xlink:href="#m5b55ef4c5e" x="155.52" y="254.71704" style="stroke: #000000; stroke-width: 0.6"/>
      </g>
     </g>
    </g>
    <g id="ytick_32">
     <g id="line2d_49">
      <g>
       <use xlink:href="#m5b55ef4c5e" x="155.52" y="249.128402" style="stroke: #000000; stroke-width: 0.6"/>
      </g>
     </g>
    </g>
    <g id="ytick_33">
     <g id="line2d_50">
      <g>
       <use xlink:href="#m5b55ef4c5e" x="155.52" y="211.240343" style="stroke: #000000; stroke-width: 0.6"/>
      </g>
     </g>
    </g>
    <g id="ytick_34">
     <g id="line2d_51">
      <g>
       <use xlink:href="#m5b55ef4c5e" x="155.52" y="192.001597" style="stroke: #000000; stroke-width: 0.6"/>
      </g>
     </g>
    </g>
    <g id="ytick_35">
     <g id="line2d_52">
      <g>
       <use xlink:href="#m5b55ef4c5e" x="155.52" y="178.351491" style="stroke: #000000; stroke-width: 0.6"/>
      </g>
     </g>
    </g>
    <g id="ytick_36">
     <g id="line2d_53">
      <g>
       <use xlink:href="#m5b55ef4c5e" x="155.52" y="167.763645" style="stroke: #000000; stroke-width: 0.6"/>
      </g>
     </g>
    </g>
    <g id="ytick_37">
     <g id="line2d_54">
      <g>
       <use xlink:href="#m5b55ef4c5e" x="155.52" y="159.112745" style="stroke: #000000; stroke-width: 0.6"/>
      </g>
     </g>
    </g>
    <g id="ytick_38">
     <g id="line2d_55">
      <g>
       <use xlink:href="#m5b55ef4c5e" x="155.52" y="151.798514" style="stroke: #000000; stroke-width: 0.6"/>
      </g>
     </g>
    </g>
    <g id="ytick_39">
     <g id="line2d_56">
      <g>
       <use xlink:href="#m5b55ef4c5e" x="155.52" y="145.462638" style="stroke: #000000; stroke-width: 0.6"/>
      </g>
     </g>
    </g>
    <g id="ytick_40">
     <g id="line2d_57">
      <g>
       <use xlink:href="#m5b55ef4c5e" x="155.52" y="139.874" style="stroke: #000000; stroke-width: 0.6"/>
      </g>
     </g>
    </g>
    <g id="ytick_41">
     <g id="line2d_58">
      <g>
       <use xlink:href="#m5b55ef4c5e" x="155.52" y="101.985941" style="stroke: #000000; stroke-width: 0.6"/>
      </g>
     </g>
    </g>
    <g id="ytick_42">
     <g id="line2d_59">
      <g>
       <use xlink:href="#m5b55ef4c5e" x="155.52" y="82.747196" style="stroke: #000000; stroke-width: 0.6"/>
      </g>
     </g>
    </g>
    <g id="text_13">
     <!-- global error -->
     <g transform="translate(118.940313 366.725806) rotate(-90) scale(0.1 -0.1)">
      <defs>
       <path id="DejaVuSans-67" d="M 2906 1791 
Q 2906 2416 2648 2759 
Q 2391 3103 1925 3103 
Q 1463 3103 1205 2759 
Q 947 2416 947 1791 
Q 947 1169 1205 825 
Q 1463 481 1925 481 
Q 2391 481 2648 825 
Q 2906 1169 2906 1791 
z
M 3481 434 
Q 3481 -459 3084 -895 
Q 2688 -1331 1869 -1331 
Q 1566 -1331 1297 -1286 
Q 1028 -1241 775 -1147 
L 775 -588 
Q 1028 -725 1275 -790 
Q 1522 -856 1778 -856 
Q 2344 -856 2625 -561 
Q 2906 -266 2906 331 
L 2906 616 
Q 2728 306 2450 153 
Q 2172 0 1784 0 
Q 1141 0 747 490 
Q 353 981 353 1791 
Q 353 2603 747 3093 
Q 1141 3584 1784 3584 
Q 2172 3584 2450 3431 
Q 2728 3278 2906 2969 
L 2906 3500 
L 3481 3500 
L 3481 434 
z
" transform="scale(0.015625)"/>
       <path id="DejaVuSans-6c" d="M 603 4863 
L 1178 4863 
L 1178 0 
L 603 0 
L 603 4863 
z
" transform="scale(0.015625)"/>
       <path id="DejaVuSans-62" d="M 3116 1747 
Q 3116 2381 2855 2742 
Q 2594 3103 2138 3103 
Q 1681 3103 1420 2742 
Q 1159 2381 1159 1747 
Q 1159 1113 1420 752 
Q 1681 391 2138 391 
Q 2594 391 2855 752 
Q 3116 1113 3116 1747 
z
M 1159 2969 
Q 1341 3281 1617 3432 
Q 1894 3584 2278 3584 
Q 2916 3584 3314 3078 
Q 3713 2572 3713 1747 
Q 3713 922 3314 415 
Q 2916 -91 2278 -91 
Q 1894 -91 1617 61 
Q 1341 213 1159 525 
L 1159 0 
L 581 0 
L 581 4863 
L 1159 4863 
L 1159 2969 
z
" transform="scale(0.015625)"/>
      </defs>
      <use xlink:href="#DejaVuSans-67"/>
      <use xlink:href="#DejaVuSans-6c" x="63.476562"/>
      <use xlink:href="#DejaVuSans-6f" x="91.259766"/>
      <use xlink:href="#DejaVuSans-62" x="152.441406"/>
      <use xlink:href="#DejaVuSans-61" x="215.917969"/>
      <use xlink:href="#DejaVuSans-6c" x="277.197266"/>
      <use xlink:href="#DejaVuSans-20" x="304.980469"/>
      <use xlink:href="#DejaVuSans-65" x="336.767578"/>
      <use xlink:href="#DejaVuSans-72" x="398.291016"/>
      <use xlink:href="#DejaVuSans-72" x="437.654297"/>
      <use xlink:href="#DejaVuSans-6f" x="476.517578"/>
      <use xlink:href="#DejaVuSans-72" x="537.699219"/>
     </g>
    </g>
   </g>
   <g id="line2d_60">
    <path d="M 199.348364 103.6764 
L 200.9265 103.6764 
L 201.101849 185.284211 
L 202.679986 185.284211 
L 202.855334 235.241643 
L 204.433471 235.241643 
L 204.608819 278.571031 
L 206.186956 278.571031 
L 206.362305 319.156758 
L 207.940441 319.156758 
L 208.11579 358.23016 
L 209.693927 358.23016 
L 209.869275 389.218445 
L 211.447412 389.218445 
L 211.62276 397.964357 
L 213.200897 397.964357 
L 213.376246 405.203776 
L 214.954382 405.203776 
L 215.129731 411.356152 
L 216.707868 411.356152 
L 216.883216 416.79208 
L 218.461353 416.79208 
L 218.636701 421.675076 
L 220.214838 421.675076 
L 220.390187 426.097454 
L 221.968323 426.097454 
L 222.143672 430.154183 
L 223.721809 430.154183 
L 223.897157 433.705485 
L 225.475294 433.705485 
L 225.650642 436.98831 
L 227.228779 436.98831 
L 227.404128 439.923622 
L 228.982264 439.923622 
L 229.157613 442.583857 
L 230.735749 442.583857 
L 230.911098 444.975122 
L 232.489235 444.975122 
L 232.664583 447.115519 
L 234.24272 447.115519 
L 234.418068 449.070999 
L 235.996205 449.070999 
L 236.171554 450.850757 
L 237.74969 450.850757 
L 237.925039 452.431268 
L 239.503176 452.431268 
L 239.678524 453.8292 
L 241.256661 453.8292 
L 241.432009 455.147856 
L 243.010146 455.147856 
L 243.185495 456.296192 
L 244.763631 456.296192 
L 244.93898 457.303096 
L 246.517117 457.303096 
L 246.692465 458.245247 
L 248.270602 458.245247 
L 248.44595 459.03026 
L 250.024087 459.03026 
L 250.199436 459.78378 
L 251.777572 459.78378 
L 251.952921 460.504076 
L 253.531058 460.504076 
L 253.706406 461.235475 
L 255.284543 461.235475 
L 255.459891 461.978325 
L 257.038028 461.978325 
L 257.213377 462.73299 
L 258.791513 462.73299 
L 258.966862 463.451559 
L 260.544999 463.451559 
L 260.720347 464.23022 
L 262.298484 464.23022 
L 262.473832 464.972006 
L 264.051969 464.972006 
L 264.227318 465.725572 
L 265.805454 465.725572 
L 265.980803 466.4913 
L 267.55894 466.4913 
L 267.734288 467.217304 
L 269.312425 467.217304 
L 269.487773 468.007693 
L 271.06591 468.007693 
L 271.241259 468.75746 
L 272.819395 468.75746 
L 272.994744 469.464444 
L 274.572881 469.464444 
L 274.748229 470.237779 
L 276.326366 470.237779 
L 276.501714 470.96734 
L 278.079851 470.96734 
L 278.2552 471.650884 
L 279.833336 471.650884 
L 280.008685 472.402675 
L 281.586822 472.402675 
L 281.76217 473.10737 
L 283.340307 473.10737 
L 283.515655 473.822689 
L 285.093792 473.822689 
L 285.269141 474.548957 
L 286.847277 474.548957 
L 287.022626 475.224612 
L 288.600762 475.224612 
L 288.776111 475.910027 
L 290.354248 475.910027 
L 290.529596 476.605488 
L 292.107733 476.605488 
L 292.283081 477.311295 
L 293.861218 477.311295 
L 294.036567 477.962177 
L 295.614703 477.962177 
L 295.790052 478.622113 
L 297.368189 478.622113 
L 297.543537 479.291356 
L 299.121674 479.291356 
L 299.297022 479.970174 
L 300.875159 479.970174 
L 301.050508 480.589527 
L 302.628644 480.589527 
L 302.803993 481.21707 
L 304.38213 481.21707 
L 304.557478 481.853025 
L 306.135615 481.853025 
L 306.310963 482.497619 
L 307.8891 482.497619 
L 308.064449 483.151092 
L 309.642585 483.151092 
L 309.817934 483.739609 
L 311.396071 483.739609 
L 311.571419 484.335517 
L 313.149556 484.335517 
L 313.324904 484.939005 
L 314.903041 484.939005 
L 315.07839 485.550267 
L 316.656526 485.550267 
L 316.831875 486.169507 
L 318.410012 486.169507 
L 318.58536 486.718052 
L 320.163497 486.718052 
L 320.338845 487.352825 
L 321.916982 487.352825 
L 322.092331 487.915304 
L 323.670467 487.915304 
L 323.845816 488.484531 
L 325.423953 488.484531 
L 325.599301 489.06067 
L 327.177438 489.06067 
L 327.352786 489.560134 
L 328.930923 489.560134 
L 329.106272 490.149565 
L 330.684408 490.149565 
L 330.859757 490.660685 
L 332.437894 490.660685 
L 332.613242 491.177372 
L 334.191379 491.177372 
L 334.366727 491.699747 
L 335.944864 491.699747 
L 336.120213 492.227937 
L 337.698349 492.227937 
L 337.873698 492.762073 
L 339.451835 492.762073 
L 339.627183 493.302291 
L 341.20532 493.302291 
L 341.380668 493.757218 
L 342.958805 493.757218 
L 343.134154 494.308952 
L 344.71229 494.308952 
L 344.887639 494.773682 
L 346.465775 494.773682 
L 346.641124 495.243009 
L 348.219261 495.243009 
L 348.394609 495.717025 
L 349.972746 495.717025 
L 350.148094 496.195824 
L 351.726231 496.195824 
L 351.90158 496.679504 
L 353.479716 496.679504 
L 353.655065 497.07003 
L 355.233202 497.07003 
L 355.40855 497.56275 
L 356.986687 497.56275 
L 357.162035 497.960645 
L 358.740172 497.960645 
L 358.915521 498.462751 
L 360.493657 498.462751 
L 360.669006 498.868297 
L 362.247143 498.868297 
L 362.422491 499.277339 
L 364.000628 499.277339 
L 364.175976 499.689938 
L 365.754113 499.689938 
L 365.929462 500.106156 
L 367.507598 500.106156 
L 367.682947 500.526058 
L 369.261084 500.526058 
L 369.436432 500.843441 
L 371.014569 500.843441 
L 371.189917 501.269948 
L 372.768054 501.269948 
L 372.943403 501.700323 
L 374.521539 501.700323 
L 374.696888 502.025686 
L 376.275025 502.025686 
L 376.450373 502.463003 
L 378.02851 502.463003 
L 378.203858 502.793657 
L 379.781995 502.793657 
L 379.957344 503.126631 
L 381.53548 503.126631 
L 381.710829 503.461958 
L 383.288966 503.461958 
L 383.464314 503.912779 
L 385.042451 503.912779 
L 385.217799 504.253729 
L 386.795936 504.253729 
L 386.971285 504.597146 
L 388.549421 504.597146 
L 388.72477 504.943066 
L 390.302907 504.943066 
L 390.478255 505.291528 
L 392.056392 505.291528 
L 392.23174 505.525265 
L 393.809877 505.525265 
L 393.985226 505.878044 
L 395.563362 505.878044 
L 395.738711 506.233466 
L 397.316848 506.233466 
L 397.492196 506.59157 
L 399.070333 506.59157 
L 399.245681 506.831817 
L 400.823818 506.831817 
L 400.999167 507.194483 
L 402.577303 507.194483 
L 402.752652 507.437809 
L 404.330788 507.437809 
L 404.506137 507.805155 
L 406.084274 507.805155 
L 406.259622 508.051642 
L 407.837759 508.051642 
L 408.013107 508.423789 
L 409.591244 508.423789 
L 409.766593 508.673519 
L 411.344729 508.673519 
L 411.520078 509.050596 
L 413.098215 509.050596 
L 413.273563 509.303656 
L 414.8517 509.303656 
L 415.027048 509.558072 
L 416.605185 509.558072 
L 416.780534 509.942274 
L 418.35867 509.942274 
L 418.534019 510.200147 
L 420.112156 510.200147 
L 420.287504 510.459429 
L 421.865641 510.459429 
L 422.040989 510.720137 
L 423.619126 510.720137 
L 423.794475 511.113903 
L 425.372611 511.113903 
L 425.54796 511.378241 
L 427.126097 511.378241 
L 427.301445 511.64406 
L 428.879582 511.64406 
L 429.05493 511.911377 
L 430.633067 511.911377 
L 430.808416 512.180208 
L 432.386552 512.180208 
L 432.561901 512.450571 
L 434.140038 512.450571 
L 434.315386 512.722484 
L 435.893523 512.722484 
L 436.068871 512.995963 
L 437.647008 512.995963 
L 437.822357 513.409161 
L 439.400493 513.409161 
L 439.575842 513.686639 
L 441.153979 513.686639 
L 441.329327 513.965749 
L 442.907464 513.965749 
L 443.082812 514.246511 
L 444.660949 514.246511 
L 444.836298 514.528944 
L 446.414434 514.528944 
L 446.765131 514.670793 
L 448.16792 514.670793 
L 448.343268 514.95577 
L 449.921405 514.95577 
L 450.096753 515.24247 
L 451.67489 515.24247 
L 451.850239 515.530912 
L 453.428375 515.530912 
L 453.603724 515.821118 
L 455.181861 515.821118 
L 455.357209 516.11311 
L 456.935346 516.11311 
L 457.110694 516.406911 
L 458.688831 516.406911 
L 458.86418 516.702541 
L 460.442316 516.702541 
L 460.617665 517.000026 
L 462.195801 517.000026 
L 462.37115 517.14947 
L 463.949287 517.14947 
L 464.124635 517.449779 
L 465.702772 517.449779 
L 465.87812 517.752 
L 467.456257 517.752 
L 467.631606 518.056158 
L 469.209742 518.056158 
L 469.385091 518.362279 
L 470.963228 518.362279 
L 471.138576 518.516084 
L 472.716713 518.516084 
L 472.892061 518.825196 
L 474.470198 518.825196 
L 474.645547 519.136335 
L 476.223683 519.136335 
L 476.399032 519.449529 
L 477.977169 519.449529 
L 478.152517 519.606904 
L 479.730654 519.606904 
L 479.906002 519.923229 
L 481.484139 519.923229 
L 481.659488 520.241677 
L 483.237624 520.241677 
L 483.412973 520.401706 
L 484.99111 520.401706 
L 485.166458 520.723393 
L 486.744595 520.723393 
L 486.919943 521.047275 
L 488.49808 521.047275 
L 488.673429 521.210049 
L 490.251565 521.210049 
L 490.426914 521.537282 
L 492.005051 521.537282 
L 492.180399 521.866787 
L 493.758536 521.866787 
L 493.933884 522.032402 
L 495.512021 522.032402 
L 495.68737 522.365376 
L 497.265506 522.365376 
L 497.440855 522.532743 
L 499.018992 522.532743 
L 499.19434 522.869259 
L 500.772477 522.869259 
L 500.947825 523.208179 
L 502.525962 523.208179 
L 502.701311 523.378551 
L 504.279447 523.378551 
L 504.454796 523.721142 
L 506.032933 523.721142 
L 506.208281 523.893369 
L 507.786418 523.893369 
L 507.961766 524.239711 
L 509.539903 524.239711 
L 509.715252 524.413834 
L 511.293388 524.413834 
L 511.468737 524.76401 
L 513.046874 524.76401 
L 513.222222 524.940072 
L 514.800359 524.940072 
L 514.975707 525.294167 
L 516.553844 525.294167 
L 516.729193 525.472211 
L 518.307329 525.472211 
L 518.482678 525.830315 
L 520.060814 525.830315 
L 520.236163 526.010386 
L 521.8143 526.010386 
L 521.989648 526.372591 
L 523.567785 526.372591 
L 523.743133 526.554735 
L 525.32127 526.554735 
L 525.496619 526.921135 
L 527.074755 526.921135 
L 527.250104 527.105402 
L 528.828241 527.105402 
L 529.003589 527.476096 
L 530.581726 527.476096 
L 530.757074 527.662534 
L 532.335211 527.662534 
L 532.51056 527.849709 
L 534.088696 527.849709 
L 534.264045 528.226287 
L 535.842182 528.226287 
L 536.01753 528.415702 
L 537.595667 528.415702 
L 537.771015 528.796818 
L 539.349152 528.796818 
L 539.524501 528.988529 
L 541.102637 528.988529 
L 541.277986 529.181019 
L 542.856123 529.181019 
L 543.031471 529.568356 
L 544.609608 529.568356 
L 544.784956 529.763217 
L 546.363093 529.763217 
L 546.538442 530.155357 
L 548.116578 530.155357 
L 548.291927 530.352648 
L 549.870064 530.352648 
L 550.045412 530.550764 
L 551.623549 530.550764 
L 551.798897 530.949494 
L 553.377034 530.949494 
L 553.552383 531.150122 
L 555.130519 531.150122 
L 555.305868 531.351603 
L 556.884005 531.351603 
L 557.059353 531.553942 
L 558.63749 531.553942 
L 558.812838 531.961229 
L 560.390975 531.961229 
L 560.566324 532.166191 
L 562.14446 532.166191 
L 562.319809 532.372042 
L 563.897946 532.372042 
L 564.073294 532.786442 
L 565.651431 532.786442 
L 565.826779 532.995008 
L 567.404916 532.995008 
L 567.580265 533.204494 
L 569.158401 533.204494 
L 569.33375 533.41491 
L 570.911887 533.41491 
L 571.087235 533.838561 
L 572.665372 533.838561 
L 572.84072 534.051813 
L 574.418857 534.051813 
L 574.594206 534.266028 
L 576.172342 534.266028 
L 576.347691 534.481215 
L 577.925827 534.481215 
L 578.101176 534.697382 
L 579.679313 534.697382 
L 579.854661 535.132693 
L 581.432798 535.132693 
L 581.608147 535.351856 
L 583.186283 535.351856 
L 583.361632 535.572035 
L 584.939768 535.572035 
L 585.115117 535.793241 
L 586.693254 535.793241 
L 586.868602 536.015483 
L 588.446739 536.015483 
L 588.622087 536.463114 
L 590.200224 536.463114 
L 590.375573 536.688524 
L 591.953709 536.688524 
L 592.129058 536.915009 
L 593.707195 536.915009 
L 593.882543 537.142581 
L 595.46068 537.142581 
L 595.636028 537.371249 
L 597.214165 537.371249 
L 597.389514 537.601025 
L 598.96765 537.601025 
L 599.142999 538.063941 
L 600.721136 538.063941 
L 600.896484 538.297104 
L 602.474621 538.297104 
L 602.649969 538.531419 
L 604.228106 538.531419 
L 604.403455 538.766896 
L 605.981591 538.766896 
L 606.15694 539.003548 
L 607.735077 539.003548 
L 607.910425 539.241386 
L 609.488562 539.241386 
L 609.66391 539.480422 
L 611.242047 539.480422 
L 611.417396 539.720669 
L 612.995532 539.720669 
L 613.170881 539.962138 
L 614.749018 539.962138 
L 614.924366 540.204842 
L 616.502503 540.204842 
L 616.677851 540.448794 
L 618.255988 540.448794 
L 618.431337 540.940494 
L 620.009473 540.940494 
L 620.184822 541.188268 
L 621.762959 541.188268 
L 621.938307 541.437342 
L 623.516444 541.437342 
L 623.691792 541.687731 
L 625.269929 541.687731 
L 625.445278 541.939448 
L 627.023414 541.939448 
L 627.198763 542.192508 
L 628.7769 542.192508 
L 628.952248 542.446925 
L 630.530385 542.446925 
L 630.705733 542.702713 
L 632.28387 542.702713 
L 632.459219 542.959887 
L 634.037355 542.959887 
L 634.212704 543.218463 
L 635.79084 543.218463 
L 635.966189 543.478456 
L 637.544326 543.478456 
L 637.719674 543.739881 
L 639.297811 543.739881 
L 639.47316 544.002755 
L 641.051296 544.002755 
L 641.226645 544.267093 
L 642.804781 544.267093 
L 642.98013 544.532912 
L 644.558267 544.532912 
L 644.733615 544.800229 
L 646.311752 544.800229 
L 646.4871 545.06906 
L 648.065237 545.06906 
L 648.240586 545.339423 
L 649.818722 545.339423 
L 649.994071 545.611336 
L 651.572208 545.611336 
L 651.747556 545.884815 
L 655.079178 545.884815 
L 655.254527 546.15988 
L 656.832663 546.15988 
L 657.008012 546.436549 
L 658.586149 546.436549 
L 658.761497 546.714841 
L 660.339634 546.714841 
L 660.514982 546.994774 
L 662.093119 546.994774 
L 662.268468 547.276369 
L 663.846604 547.276369 
L 664.021953 547.559645 
L 665.60009 547.559645 
L 665.775438 547.844623 
L 667.353575 547.844623 
L 667.528923 548.131322 
L 669.10706 548.131322 
L 669.282409 548.419764 
L 670.860545 548.419764 
L 671.035894 548.70997 
L 672.614031 548.70997 
L 672.789379 549.001962 
L 676.121001 549.001962 
L 676.29635 549.295763 
L 677.874486 549.295763 
L 678.049835 549.591393 
L 679.627972 549.591393 
L 679.80332 549.888878 
L 681.381457 549.888878 
L 681.556805 550.188239 
L 683.134942 550.188239 
L 683.310291 550.489501 
L 684.888427 550.489501 
L 685.063776 550.792688 
L 688.395398 550.792688 
L 688.570746 551.097824 
L 690.148883 551.097824 
L 690.324232 551.404936 
L 691.902368 551.404936 
L 692.077717 551.714048 
L 693.655853 551.714048 
L 693.831202 552.025188 
L 695.409339 552.025188 
L 695.584687 552.338381 
L 698.916309 552.338381 
L 699.091658 552.653655 
L 700.669794 552.653655 
L 700.845143 552.971038 
L 702.42328 552.971038 
L 702.598628 553.290558 
L 704.176765 553.290558 
L 704.352113 553.612245 
L 707.683735 553.612245 
L 707.859084 553.936127 
L 709.437221 553.936127 
L 709.612569 554.262235 
L 711.190706 554.262235 
L 711.366054 554.590601 
L 712.944191 554.590601 
L 713.11954 554.921254 
L 716.451162 554.921254 
L 716.62651 555.254228 
L 718.204647 555.254228 
L 718.379995 555.589555 
L 719.958132 555.589555 
L 720.133481 555.927269 
L 723.465103 555.927269 
L 723.640451 556.267404 
L 725.218588 556.267404 
L 725.393936 556.609994 
L 726.972073 556.609994 
L 727.147422 556.955076 
L 730.479044 556.955076 
L 730.654392 557.302686 
L 732.232529 557.302686 
L 732.407877 557.652862 
L 733.986014 557.652862 
L 734.161363 558.005641 
L 737.492985 558.005641 
L 737.668333 558.361063 
L 739.24647 558.361063 
L 739.421818 558.719167 
L 742.75344 558.719167 
L 742.928789 559.079995 
L 744.506926 559.079995 
L 744.682274 559.443587 
L 746.260411 559.443587 
L 746.435759 559.809987 
L 749.767381 559.809987 
L 749.94273 560.179239 
L 751.520867 560.179239 
L 751.696215 560.551387 
L 755.027837 560.551387 
L 755.203186 560.926476 
L 756.781322 560.926476 
L 756.956671 561.304555 
L 760.288293 561.304555 
L 760.463641 561.68567 
L 762.041778 561.68567 
L 762.217126 562.069871 
L 765.548748 562.069871 
L 765.724097 562.457208 
L 767.302234 562.457208 
L 767.477582 562.847734 
L 770.809204 562.847734 
L 770.984553 563.2415 
L 772.562689 563.2415 
L 772.738038 563.638562 
L 776.06966 563.638562 
L 776.245008 564.038974 
L 777.823145 564.038974 
L 777.998494 564.442794 
L 781.330116 564.442794 
L 781.505464 564.850081 
L 784.837086 564.850081 
L 785.012435 565.260894 
L 786.590571 565.260894 
L 786.76592 565.675295 
L 790.097542 565.675295 
L 790.27289 566.093346 
L 791.851027 566.093346 
L 792.026376 566.515114 
L 795.357998 566.515114 
L 795.533346 566.940665 
L 798.864968 566.940665 
L 799.040317 567.370067 
L 802.371939 567.370067 
L 802.547287 567.80339 
L 804.125424 567.80339 
L 804.300772 568.240708 
L 807.632394 568.240708 
L 807.807743 568.682093 
L 811.139365 568.682093 
L 811.314713 569.127623 
L 812.89285 569.127623 
L 813.068199 569.577376 
L 816.39982 569.577376 
L 816.575169 570.031433 
L 819.906791 570.031433 
L 820.082139 570.489877 
L 823.413761 570.489877 
L 823.58911 570.952793 
L 826.920732 570.952793 
L 827.09608 571.420271 
L 828.674217 571.420271 
L 828.849566 571.8924 
L 830.603051 571.8924 
L 830.603209 669.88 
L 830.603209 669.88 
" clip-path="url(#pb996470ad5)" style="fill: none; stroke: #1f77b4; stroke-width: 1.5; stroke-linecap: square"/>
   </g>
   <g id="patch_3">
    <path d="M 155.52 595.3032 
L 155.52 80.2656 
" style="fill: none; stroke: #000000; stroke-width: 0.8; stroke-linejoin: miter; stroke-linecap: square"/>
   </g>
   <g id="patch_4">
    <path d="M 1119.744 595.3032 
L 1119.744 80.2656 
" style="fill: none; stroke: #000000; stroke-width: 0.8; stroke-linejoin: miter; stroke-linecap: square"/>
   </g>
   <g id="patch_5">
    <path d="M 155.52 595.3032 
L 1119.744 595.3032 
" style="fill: none; stroke: #000000; stroke-width: 0.8; stroke-linejoin: miter; stroke-linecap: square"/>
   </g>
   <g id="patch_6">
    <path d="M 155.52 80.2656 
L 1119.744 80.2656 
" style="fill: none; stroke: #000000; stroke-width: 0.8; stroke-linejoin: miter; stroke-linecap: square"/>
   </g>
   <g id="text_14">
    <!-- error over # iterations -->
    <g transform="translate(570.507 74.2656) scale(0.12 -0.12)">
     <defs>
      <path id="DejaVuSans-76" d="M 191 3500 
L 800 3500 
L 1894 563 
L 2988 3500 
L 3597 3500 
L 2284 0 
L 1503 0 
L 191 3500 
z
" transform="scale(0.015625)"/>
     </defs>
     <use xlink:href="#DejaVuSans-65"/>
     <use xlink:href="#DejaVuSans-72" x="61.523438"/>
     <use xlink:href="#DejaVuSans-72" x="100.886719"/>
     <use xlink:href="#DejaVuSans-6f" x="139.75"/>
     <use xlink:href="#DejaVuSans-72" x="200.931641"/>
     <use xlink:href="#DejaVuSans-20" x="242.044922"/>
     <use xlink:href="#DejaVuSans-6f" x="273.832031"/>
     <use xlink:href="#DejaVuSans-76" x="335.013672"/>
     <use xlink:href="#DejaVuSans-65" x="394.193359"/>
     <use xlink:href="#DejaVuSans-72" x="455.716797"/>
     <use xlink:href="#DejaVuSans-20" x="496.830078"/>
     <use xlink:href="#DejaVuSans-23" x="528.617188"/>
     <use xlink:href="#DejaVuSans-20" x="612.40625"/>
     <use xlink:href="#DejaVuSans-69" x="644.193359"/>
     <use xlink:href="#DejaVuSans-74" x="671.976562"/>
     <use xlink:href="#DejaVuSans-65" x="711.185547"/>
     <use xlink:href="#DejaVuSans-72" x="772.708984"/>
     <use xlink:href="#DejaVuSans-61" x="813.822266"/>
     <use xlink:href="#DejaVuSans-74" x="875.101562"/>
     <use xlink:href="#DejaVuSans-69" x="914.310547"/>
     <use xlink:href="#DejaVuSans-6f" x="942.09375"/>
     <use xlink:href="#DejaVuSans-6e" x="1003.275391"/>
     <use xlink:href="#DejaVuSans-73" x="1066.654297"/>
    </g>
   </g>
   <g id="legend_1">
    <g id="patch_7">
     <path d="M 872.961188 102.943725 
L 1112.744 102.943725 
Q 1114.744 102.943725 1114.744 100.943725 
L 1114.744 87.2656 
Q 1114.744 85.2656 1112.744 85.2656 
L 872.961188 85.2656 
Q 870.961188 85.2656 870.961188 87.2656 
L 870.961188 100.943725 
Q 870.961188 102.943725 872.961188 102.943725 
z
" style="fill: #ffffff; opacity: 0.8; stroke: #cccccc; stroke-linejoin: miter"/>
    </g>
    <g id="line2d_61">
     <path d="M 874.961188 93.364037 
L 884.961188 93.364037 
L 894.961188 93.364037 
" style="fill: none; stroke: #1f77b4; stroke-width: 1.5; stroke-linecap: square"/>
    </g>
    <g id="text_15">
     <!-- Errors for size:800 * 800, iterations: 5000 -->
     <g transform="translate(902.961188 96.864037) scale(0.1 -0.1)">
      <defs>
       <path id="DejaVuSans-45" d="M 628 4666 
L 3578 4666 
L 3578 4134 
L 1259 4134 
L 1259 2753 
L 3481 2753 
L 3481 2222 
L 1259 2222 
L 1259 531 
L 3634 531 
L 3634 0 
L 628 0 
L 628 4666 
z
" transform="scale(0.015625)"/>
       <path id="DejaVuSans-66" d="M 2375 4863 
L 2375 4384 
L 1825 4384 
Q 1516 4384 1395 4259 
Q 1275 4134 1275 3809 
L 1275 3500 
L 2222 3500 
L 2222 3053 
L 1275 3053 
L 1275 0 
L 697 0 
L 697 3053 
L 147 3053 
L 147 3500 
L 697 3500 
L 697 3744 
Q 697 4328 969 4595 
Q 1241 4863 1831 4863 
L 2375 4863 
z
" transform="scale(0.015625)"/>
       <path id="DejaVuSans-7a" d="M 353 3500 
L 3084 3500 
L 3084 2975 
L 922 459 
L 3084 459 
L 3084 0 
L 275 0 
L 275 525 
L 2438 3041 
L 353 3041 
L 353 3500 
z
" transform="scale(0.015625)"/>
       <path id="DejaVuSans-3a" d="M 750 794 
L 1409 794 
L 1409 0 
L 750 0 
L 750 794 
z
M 750 3309 
L 1409 3309 
L 1409 2516 
L 750 2516 
L 750 3309 
z
" transform="scale(0.015625)"/>
       <path id="DejaVuSans-38" d="M 2034 2216 
Q 1584 2216 1326 1975 
Q 1069 1734 1069 1313 
Q 1069 891 1326 650 
Q 1584 409 2034 409 
Q 2484 409 2743 651 
Q 3003 894 3003 1313 
Q 3003 1734 2745 1975 
Q 2488 2216 2034 2216 
z
M 1403 2484 
Q 997 2584 770 2862 
Q 544 3141 544 3541 
Q 544 4100 942 4425 
Q 1341 4750 2034 4750 
Q 2731 4750 3128 4425 
Q 3525 4100 3525 3541 
Q 3525 3141 3298 2862 
Q 3072 2584 2669 2484 
Q 3125 2378 3379 2068 
Q 3634 1759 3634 1313 
Q 3634 634 3220 271 
Q 2806 -91 2034 -91 
Q 1263 -91 848 271 
Q 434 634 434 1313 
Q 434 1759 690 2068 
Q 947 2378 1403 2484 
z
M 1172 3481 
Q 1172 3119 1398 2916 
Q 1625 2713 2034 2713 
Q 2441 2713 2670 2916 
Q 2900 3119 2900 3481 
Q 2900 3844 2670 4047 
Q 2441 4250 2034 4250 
Q 1625 4250 1398 4047 
Q 1172 3844 1172 3481 
z
" transform="scale(0.015625)"/>
       <path id="DejaVuSans-2a" d="M 3009 3897 
L 1888 3291 
L 3009 2681 
L 2828 2375 
L 1778 3009 
L 1778 1831 
L 1422 1831 
L 1422 3009 
L 372 2375 
L 191 2681 
L 1313 3291 
L 191 3897 
L 372 4206 
L 1422 3572 
L 1422 4750 
L 1778 4750 
L 1778 3572 
L 2828 4206 
L 3009 3897 
z
" transform="scale(0.015625)"/>
       <path id="DejaVuSans-2c" d="M 750 794 
L 1409 794 
L 1409 256 
L 897 -744 
L 494 -744 
L 750 256 
L 750 794 
z
" transform="scale(0.015625)"/>
      </defs>
      <use xlink:href="#DejaVuSans-45"/>
      <use xlink:href="#DejaVuSans-72" x="63.183594"/>
      <use xlink:href="#DejaVuSans-72" x="102.546875"/>
      <use xlink:href="#DejaVuSans-6f" x="141.410156"/>
      <use xlink:href="#DejaVuSans-72" x="202.591797"/>
      <use xlink:href="#DejaVuSans-73" x="243.705078"/>
      <use xlink:href="#DejaVuSans-20" x="295.804688"/>
      <use xlink:href="#DejaVuSans-66" x="327.591797"/>
      <use xlink:href="#DejaVuSans-6f" x="362.796875"/>
      <use xlink:href="#DejaVuSans-72" x="423.978516"/>
      <use xlink:href="#DejaVuSans-20" x="465.091797"/>
      <use xlink:href="#DejaVuSans-73" x="496.878906"/>
      <use xlink:href="#DejaVuSans-69" x="548.978516"/>
      <use xlink:href="#DejaVuSans-7a" x="576.761719"/>
      <use xlink:href="#DejaVuSans-65" x="629.251953"/>
      <use xlink:href="#DejaVuSans-3a" x="690.775391"/>
      <use xlink:href="#DejaVuSans-38" x="724.466797"/>
      <use xlink:href="#DejaVuSans-30" x="788.089844"/>
      <use xlink:href="#DejaVuSans-30" x="851.712891"/>
      <use xlink:href="#DejaVuSans-20" x="915.335938"/>
      <use xlink:href="#DejaVuSans-2a" x="947.123047"/>
      <use xlink:href="#DejaVuSans-20" x="997.123047"/>
      <use xlink:href="#DejaVuSans-38" x="1028.910156"/>
      <use xlink:href="#DejaVuSans-30" x="1092.533203"/>
      <use xlink:href="#DejaVuSans-30" x="1156.15625"/>
      <use xlink:href="#DejaVuSans-2c" x="1219.779297"/>
      <use xlink:href="#DejaVuSans-20" x="1251.566406"/>
      <use xlink:href="#DejaVuSans-69" x="1283.353516"/>
      <use xlink:href="#DejaVuSans-74" x="1311.136719"/>
      <use xlink:href="#DejaVuSans-65" x="1350.345703"/>
      <use xlink:href="#DejaVuSans-72" x="1411.869141"/>
      <use xlink:href="#DejaVuSans-61" x="1452.982422"/>
      <use xlink:href="#DejaVuSans-74" x="1514.261719"/>
      <use xlink:href="#DejaVuSans-69" x="1553.470703"/>
      <use xlink:href="#DejaVuSans-6f" x="1581.253906"/>
      <use xlink:href="#DejaVuSans-6e" x="1642.435547"/>
      <use xlink:href="#DejaVuSans-73" x="1705.814453"/>
      <use xlink:href="#DejaVuSans-3a" x="1757.914062"/>
      <use xlink:href="#DejaVuSans-20" x="1791.605469"/>
      <use xlink:href="#DejaVuSans-35" x="1823.392578"/>
      <use xlink:href="#DejaVuSans-30" x="1887.015625"/>
      <use xlink:href="#DejaVuSans-30" x="1950.638672"/>
      <use xlink:href="#DejaVuSans-30" x="2014.261719"/>
     </g>
    </g>
   </g>
  </g>
 </g>
 <defs>
  <clipPath id="pb996470ad5">
   <rect x="155.52" y="80.2656" width="964.224" height="515.0376"/>
  </clipPath>
 </defs>
</svg>
